<svg xmlns="http://www.w3.org/2000/svg" aria-hidden="true" style="position:absolute;width:0;height:0;overflow:hidden">
  <defs>
    <symbol id="icon-arrow" viewBox="0 0 32 32">
      <path fill="#7132f5" d="m26.204 9.451-3.041 11.348a1.389 1.389 0 0 1-1.698.981 1.389 1.389 0 0 1-.981-1.698l2.177-8.117-14.689 8.481a1.384 1.384 0 0 1-2.03-1.558c.095-.355.327-.657.645-.841l14.689-8.481-8.118-2.178a1.389 1.389 0 0 1-.335-2.541 1.389 1.389 0 0 1 1.053-.139l11.349 3.041a1.388 1.388 0 0 1 1.016 1.16c.023.18.011.365-.037.541z" style="fill:var(--color1, #7132f5)"/>
    </symbol>
    <symbol id="icon-bar-chart" viewBox="0 0 32 32">
      <path fill="#ebb8ab" d="m10.186 3.489.424-.001c.381-.001.762-.001 1.143 0h1.08c.756-.001 1.513 0 2.269.001h1.94c.754-.001 1.508-.002 2.262-.001h1.194c.374-.001.749 0 1.123.001h.41c1.804-.006 3.362.453 4.677 1.732l.16.16.132.13c1.23 1.291 1.525 2.957 1.519 4.669l.001.425V12.829c.001.757 0 1.513-.001 2.27v1.941c.001.754.002 1.508.001 2.263v.362l.001.832c.001.375 0 .749-.001 1.123v.41c.006 1.715-.422 3.232-1.592 4.531l-.127.142c-.893.946-2.34 1.725-3.66 1.784-.154.003-.307.003-.461.003l-.178.001-.591.001-.424.001-1.273.002-.601.001-2 .002h-.649c-.695 0-1.389.002-2.084.004-.715.002-1.429.003-2.144.003l-1.202.002c-.377.001-.755.002-1.132.001l-.414.001c-1.72.01-3.238-.416-4.54-1.589l-.142-.127c-.946-.893-1.725-2.34-1.784-3.66-.003-.154-.003-.307-.003-.461l-.001-.178-.001-.591-.001-.424-.002-1.272-.001-.601-.002-1.999v-.648l-.004-2.082c-.002-.714-.003-1.428-.003-2.143l-.002-1.201c-.001-.377-.002-.754-.001-1.132L3.5 9.988c-.01-1.808.448-3.368 1.729-4.687l.16-.161.13-.132c1.291-1.23 2.956-1.525 4.668-1.519zm5.019 5.603c-.178.342-.166.694-.165 1.07l-.001.157v.521l-.001.374-.001 1.015v.634l-.001 2.212-.002 2.062-.001 1.77-.001 1.057v.994l-.001.365v.498l-.001.145c.002.372.04.719.241 1.042.228.222.414.302.731.338a1.05 1.05 0 0 0 .664-.266c.316-.382.309-.771.308-1.243v-.678l.001-.374.001-1.015v-.634l.001-2.212.002-2.061.001-1.771.001-1.057v-1.857l.001-.145c-.002-.373-.04-.719-.241-1.042-.228-.222-.414-.302-.731-.338-.357.016-.583.169-.806.439zm-6.407 3.83c-.191.355-.143.777-.141 1.169l-.001.278V15.912l.001 1.326v1.532l-.001 1.317v.786c-.001.246 0 .492.001.739v.271c-.012.641-.012.641.272 1.198.258.213.497.28.832.263.279-.05.443-.213.627-.417.164-.237.169-.419.17-.7l.001-.238.001-.261.001-.275.002-.903.001-.311.002-1.46c.001-.562.002-1.123.005-1.685.002-.434.003-.869.003-1.303l.002-.778c.001-.244.002-.488.001-.732l.001-.268c.013-.64.013-.64-.269-1.192-.277-.251-.45-.322-.817-.316-.313.036-.499.177-.693.419zm12.981 2.397c-.222.251-.319.437-.32.777l-.001.172v.188l-.001.199-.002.652-.001.453-.001.828-.003 1.218c-.002.352-.002.704-.002 1.056l-.002.449a65.73 65.73 0 0 0 0 .628l-.002.187c.002.368.032.65.295.932.326.249.521.308.928.261.292-.094.465-.259.611-.53.098-.26.082-.53.08-.804l.001-.202v-.659l.001-.459-.001-.962V17.069c.001-.212 0-.423-.002-.635l.002-.189c-.004-.375-.05-.601-.273-.905-.422-.348-.891-.403-1.309-.021z" style="fill:var(--color2, #ebb8ab)"/>
    </symbol>
    <symbol id="icon-cases" viewBox="0 0 32 32">
      <path fill="#cf567f" d="m12.535 3.509.225-.002.242-.001.125-.001.654-.003.669-.005c.173-.002.347-.002.52-.002.122 0 .243-.002.365-.004 1.019.002 1.875.345 2.6 1.056.631.658.96 1.441.95 2.352l-.001.135-.003.327.227-.008c1.694-.044 3.142.548 4.393 1.688a6.069 6.069 0 0 1 1.815 4.198c.004.323.005.645.005.968l.001.424.001.887c0 .376.002.751.004 1.127l.002.876.002.415c.008 1.241-.117 2.352-.689 3.465l-.095.19c-.729 1.347-2.029 2.375-3.485 2.831-.732.207-1.405.246-2.16.244l-.35.001-.944.001H14.949c-.64-.001-1.28 0-1.92.002-.552.001-1.104.002-1.655.001l-.986.001H9.122c-.901.005-1.752-.104-2.588-.466l-.127-.054a5.35 5.35 0 0 1-1.084-.651 38.519 38.519 0 0 0-.172-.129c-1.305-1.025-2.068-2.494-2.288-4.131a9.197 9.197 0 0 1-.017-.664l-.001-.188-.002-.609-.001-.429-.001-.896c0-.38-.002-.76-.004-1.14l-.002-.885-.002-.42c-.007-1.232.126-2.304.689-3.41l.095-.19c.814-1.502 2.228-2.448 3.83-2.932.607-.154 1.213-.135 1.835-.118l-.008-.183c-.018-.562.037-1.028.248-1.557l.06-.156c.355-.815 1.098-1.434 1.909-1.756a2.924 2.924 0 0 1 1.045-.198zm-.964 2.534c-.3.412-.37.816-.37 1.317h5.76c-.053-.632-.094-1.097-.563-1.526-.487-.374-1.002-.403-1.591-.404l-.172-.001h-.36l-.546-.002h-.351l-.163-.001c-.647.002-1.197.118-1.644.618z" style="fill:var(--color3, #cf567f)"/>
      <path fill="#cf567f" d="M28.608 11.239c.272.138.433.338.531.621.035.28.032.559.03.84l.001.256c.001.231 0 .461-.001.692v.728l-.002 1.225c-.002.469-.002.938-.001 1.408V18.946c.002 1.911.002 1.911-.206 2.815l-.051.233c-.301 1.323-.98 2.533-1.869 3.547l-.131.155a6.93 6.93 0 0 1-1.069.985l-.155.121c-.88.667-1.854 1.121-2.913 1.424l-.126.036c-.854.232-1.69.237-2.568.237l-.417.002-1.126.002-.704.001-1.952.002h-.631c-.679 0-1.357.002-2.036.004l-2.094.003-1.174.002c-.368.002-.735.002-1.103.001l-.405.001h-.552a8.539 8.539 0 0 1-.162.002c-.374-.005-.558-.092-.841-.339-.214-.297-.23-.606-.18-.96.108-.322.305-.501.6-.66.179-.033.354-.032.536-.03l.162-.001c.179-.001.357 0 .535.001l.384-.001.828-.001c.437.001.875 0 1.312-.002l2.079-.003c1.238 0 2.476-.002 3.713-.005l1.301-.001.815-.001h.374c2.232.004 4.206-.38 5.84-1.996l.116-.105c1.034-.955 1.674-2.467 1.804-3.854.009-.276.009-.552.009-.829l.001-.252.002-.54.003-.855.009-2.43.005-1.344.002-.71c0-.223.001-.445.003-.668v-.361c.007-.787.007-.787.298-1.117.37-.275.719-.355 1.176-.217z" style="fill:var(--color3, #cf567f)"/>
    </symbol>
    <symbol id="icon-close" viewBox="0 0 32 32">
      <path d="m8.533 25.333-1.867-1.867 7.467-7.467-7.467-7.467 1.867-1.867L16 14.132l7.467-7.467 1.867 1.867-7.467 7.467 7.467 7.467-1.867 1.867L16 17.866l-7.467 7.467z"/>
    </symbol>
    <symbol id="icon-email" viewBox="0 0 32 32">
      <path fill="#fff" d="M29.333 8c0-1.467-1.2-2.667-2.667-2.667H5.333A2.675 2.675 0 0 0 2.666 8v16c0 1.467 1.2 2.667 2.667 2.667h21.333c1.467 0 2.667-1.2 2.667-2.667V8zm-2.666 0L16 14.653 5.333 8h21.333zm0 16H5.334V10.667l10.667 6.667 10.667-6.667V24z" style="fill:var(--color4, #fff)"/>
    </symbol>
    <symbol id="icon-globe" viewBox="0 0 32 32">
      <path fill="#2861b0" d="M13.05 3.88c-.08.457-.204.892-.341 1.335-1.078 3.572-1.375 7.196-1.459 10.905-.581.019-1.152-.039-1.729-.101l-.151-.016c-1.933-.208-4.005-.443-5.74-1.383.24-2.762 1.501-5.336 3.42-7.32l.085-.09c1.347-1.419 3.863-3.33 5.915-3.33zM19.05 3.94c.403.034.756.139 1.136.274l.184.065a11.845 11.845 0 0 1 4.062 2.473c.094.088.191.174.288.258.321.278.594.569.857.903.085.107.171.213.261.316 1.457 1.693 2.579 4.193 2.632 6.451-2.132 1.011-4.583 1.246-6.908 1.46l-.135.012a6.557 6.557 0 0 1-.578.027l-.003-.114c-.107-4.058-.515-7.918-1.756-11.797-.041-.149-.041-.149-.041-.329zM15.27 3.52h1.56c1.262 2.524 1.707 5.313 1.968 8.098l.033.34c.139 1.444.11 2.893.098 4.341-.803.059-1.603.069-2.408.067h-.19a74.166 74.166 0 0 1-3.163-.067c-.055-4.21.077-8.987 2.1-12.78zM3.57 16.66c.419.103.837.211 1.252.327 2.139.591 4.282.877 6.488 1.053.052.346.073.69.09 1.04.138 2.882.608 5.728 1.525 8.47l.05.149.044.129c.031.112.031.112.031.292a7.216 7.216 0 0 1-1.322-.359A11.99 11.99 0 0 1 8.31 25.84l-.186-.149c-2.479-2.022-4.182-5.021-4.51-8.222-.023-.27-.037-.539-.045-.809zM28.53 16.66c-.059 1.884-.623 3.683-1.5 5.34l-.058.109c-1.566 2.942-4.368 4.987-7.516 5.949-.227.062-.227.062-.407.062.088-.432.209-.85.336-1.273a32.042 32.042 0 0 0 1.312-7.75l.017-.355c.016-.236.044-.468.075-.702l.161-.012c2.503-.187 4.93-.571 7.327-1.331.132-.037.132-.037.252-.037zM13.17 18.16h5.76c-.14 2.377-.14 2.377-.229 3.105l-.015.128c-.218 1.832-.528 3.661-1.136 5.407l-.045.131c-.184.53-.402.989-.675 1.489h-1.56c-1.58-3.022-2.1-6.871-2.1-10.26z" style="fill:var(--color5, #2861b0)"/>
    </symbol>
    <symbol id="icon-layers" viewBox="0 0 32 32">
      <path fill="#a883ec" d="m15.972 3.79.16-.003c.73.004 1.379.3 2.021.623l.211.104.564.281.473.236 1.117.558c.382.192.765.382 1.148.572a304.755 304.755 0 0 1 1.581.788l.657.329.194.096c.732.372 1.199.82 1.464 1.602a2.346 2.346 0 0 1-.179 1.702c-.517.849-1.362 1.192-2.222 1.618l-.318.159-.666.332-.84.419c-1.082.541-2.165 1.08-3.26 1.596l-.363.175c-.968.472-1.911.566-2.941.243a7.622 7.622 0 0 1-.63-.289l-.177-.086a61.224 61.224 0 0 1-.574-.285l-.205-.102-.826-.414a62.22 62.22 0 0 0-1.298-.634 141.556 141.556 0 0 1-2.416-1.179l-.561-.278-.169-.083c-.743-.373-1.26-.836-1.545-1.63a2.528 2.528 0 0 1 .273-1.897c.389-.529.92-.817 1.499-1.105l.206-.104.555-.278.466-.233 1.1-.55 1.129-.565.974-.488.58-.29c.216-.109.432-.216.648-.323l.19-.096c.64-.316 1.263-.533 1.981-.521z" style="fill:var(--color6, #a883ec)"/>
      <path fill="#a883ec" d="m8.178 13.953.127.065.148.074.16.082.17.086.365.185.58.293 1.649.833 1.009.509.383.194c.94.482.94.482 1.942.808l.162.041c.728.174 1.542.137 2.268-.022l.124-.027c.784-.192 1.503-.604 2.218-.968l.556-.281 1.58-.799a293.023 293.023 0 0 1 1.339-.677l.514-.259.153-.079c.344-.171.344-.171.563-.158.516.206.971.614 1.225 1.107.304.734.283 1.387-.021 2.122-.344.615-.918.966-1.532 1.269l-.206.104-.555.277-.584.292a179.4 179.4 0 0 1-.982.489c-.377.187-.753.375-1.129.564l-1.092.546-.462.231-.648.323-.19.096c-1.028.506-2.067.728-3.181.37a16.79 16.79 0 0 1-1.409-.634l-.196-.097-.634-.315-.22-.109-1.035-.515-1.187-.589c-.308-.152-.616-.305-.923-.459l-.549-.272a87.212 87.212 0 0 1-.612-.305l-.18-.088c-.634-.322-1.198-.771-1.451-1.453-.206-.672-.151-1.234.118-1.884.314-.562.95-1.249 1.627-.967z" style="fill:var(--color6, #a883ec)"/>
      <path fill="#a883ec" d="M8.052 20.32c.185.077.363.168.541.26l.162.082.346.176.551.279 1.568.794c.32.163.64.324.961.486l.363.184c1.537.786 3.133 1.363 4.868.858.736-.254 1.429-.608 2.125-.953l.599-.295c.672-.331 1.343-.665 2.01-1.006l.365-.185c.229-.116.457-.234.685-.352l.31-.158.14-.074c.265-.133.429-.19.725-.096.63.347.986.825 1.2 1.5.165.571.048 1.144-.18 1.68-.37.628-.956.946-1.591 1.262l-.205.104-.554.278-.465.233-1.099.55-1.128.565-.973.488-.579.29-.648.324-.189.096c-.629.31-1.282.535-1.988.521l-.141.003c-.73-.005-1.406-.299-2.047-.623l-.211-.104a98.393 98.393 0 0 1-.563-.281 69.444 69.444 0 0 0-.473-.236l-1.116-.558c-.382-.192-.764-.382-1.146-.572l-.99-.494-.589-.294-.656-.329-.194-.096c-.732-.372-1.198-.82-1.464-1.602A2.32 2.32 0 0 1 6.57 21.3c.315-.524.808-1.147 1.481-.979z" style="fill:var(--color6, #a883ec)"/>
    </symbol>
    <symbol id="icon-location" viewBox="0 0 32 32">
      <path fill="#fff" d="M25 13a9 9 0 1 0-18 0c0 3.692 2.954 8.504 9 14.268 6.046-5.764 9-10.576 9-14.268zm-9 17C8.666 23.334 5 17.666 5 13a11 11 0 0 1 22 0c0 4.666-3.666 10.334-11 17z" style="fill:var(--color4, #fff)"/>
      <path fill="#fff" d="M16 16a3.004 3.004 0 0 0 3-3 3.004 3.004 0 0 0-3-3 2.998 2.998 0 0 0-3 3 2.998 2.998 0 0 0 3 3zm0 2a4.997 4.997 0 0 1-5-5 4.997 4.997 0 0 1 5-5 4.997 4.997 0 0 1 5 5 4.997 4.997 0 0 1-5 5z" style="fill:var(--color4, #fff)"/>
    </symbol>
    <symbol id="icon-menu" viewBox="0 0 32 32">
      <path d="M4 24v-2.667h24V24H4zm0-6.667v-2.667h24v2.667H4zm0-6.666V8h24v2.667H4z"/>
    </symbol>
    <symbol id="icon-strategy" viewBox="0 0 32 32">
      <path fill="#83ecb9" d="m10.15 3.489.424-.001c.381-.001.762-.001 1.143 0h1.08c.756-.001 1.513 0 2.269.001h1.94c.754-.001 1.508-.002 2.262-.001h1.194c.374-.001.749 0 1.123.001h.41c1.804-.006 3.362.453 4.677 1.732l.16.16.132.13c.952.998 1.497 2.452 1.496 3.817l.001.178.001.591.001.424.002 1.273.001.601.002 2v.649c0 .695.002 1.389.004 2.084.002.715.003 1.429.003 2.144l.002 1.202c.001.377.002.755.001 1.132l.001.414c.01 1.72-.416 3.238-1.589 4.54l-.127.142c-.893.946-2.34 1.725-3.66 1.784-.154.003-.307.003-.461.003l-.178.001-.591.001-.424.001-1.273.002-.601.001-2 .002h-.648c-.695 0-1.389.002-2.084.004-.715.002-1.429.003-2.144.003l-1.202.002c-.377.001-.755.002-1.132.001l-.414.001c-1.72.01-3.238-.416-4.54-1.589l-.142-.127c-.946-.893-1.725-2.34-1.784-3.66-.003-.154-.003-.307-.003-.461l-.001-.178-.001-.591-.001-.424-.002-1.272-.001-.601-.002-1.999v-.648l-.004-2.082c-.002-.714-.003-1.428-.003-2.143l-.002-1.201c-.001-.377-.002-.754-.001-1.132l-.001-.413c-.01-1.808.448-3.368 1.729-4.687l.16-.161.13-.132c1.291-1.23 2.956-1.525 4.668-1.519zm.926 4.548-.128.128-.4.405-.273.275-.665.674-.201-.172-.113-.097c-.162-.139-.32-.283-.478-.426-.196-.154-.396-.166-.64-.162-.301.039-.492.197-.694.414-.125.27-.152.51-.094.803.19.432.527.733.859 1.061l.168.17c.448.462.448.462 1.026.718.433-.014.698-.179.999-.479l.166-.164.176-.177.183-.183.382-.383.489-.489a67 67 0 0 0 .558-.557l.252-.253.145-.145c.226-.27.267-.512.237-.86-.114-.316-.276-.467-.54-.66-.63-.21-1.001.133-1.415.558zm10.715.823a3.595 3.595 0 0 0-.36.42l-.307.398-.085.109c-.308.391-.643.754-.987 1.113l-.129.136c-.314.324-.658.604-1.011.884l-.178.144a13.4 13.4 0 0 1-1.682 1.116l-.135.078a13.68 13.68 0 0 1-7.009 1.775c-.363-.002-.711.024-.994.273-.221.253-.285.473-.279.807.04.308.197.499.433.69 1.439.763 4.304-.122 5.764-.563a15.64 15.64 0 0 0 6.019-3.51c.137-.128.277-.25.42-.371.196-.17.365-.353.532-.551.074-.086.15-.171.228-.254.303-.322.576-.664.841-1.018l.105-.135c.224-.305.331-.558.315-.941-.062-.271-.201-.446-.409-.626-.393-.192-.717-.194-1.091.026zm-1.859 8.16-.129.104c-.537.48-.846 1.202-.904 1.912-.028.774.242 1.486.74 2.075a2.98 2.98 0 0 0 2.13.964c.773-.012 1.452-.304 2.018-.825.601-.633.859-1.41.844-2.271a2.964 2.964 0 0 0-.93-1.918c-1.114-.926-2.645-.978-3.769-.041zM8.876 19.262c-.19.284-.255.472-.196.819.113.425.506.724.811 1.018-.229.268-.46.534-.695.798-.167.2-.166.366-.162.619a.927.927 0 0 0 .349.642c.271.177.489.196.807.161.301-.122.493-.29.713-.521l.09-.093.217-.226.18.154.115.098.253.223.127.113.117.106c.196.154.396.166.64.162.301-.039.492-.197.694-.414.128-.276.139-.503.094-.802-.162-.401-.469-.667-.78-.96.115-.275.32-.441.534-.641.185-.205.24-.372.264-.645a1.002 1.002 0 0 0-.379-.743c-.266-.194-.455-.213-.78-.191-.285.117-.47.27-.682.491l-.159.164-.119.125a1.157 1.157 0 0 1-.435-.323c-.272-.278-.533-.437-.922-.484-.302.039-.488.128-.697.349z" style="fill:var(--color7, #83ecb9)"/>
      <path fill="#83ecb9" d="M22.171 18.277c.249.145.393.279.521.543.05.331.045.627-.101.93-.284.307-.468.434-.881.465-.277-.019-.466-.083-.664-.283-.271-.318-.298-.519-.294-.929.03-.268.123-.424.321-.603a1.13 1.13 0 0 1 1.099-.123z" style="fill:var(--color7, #83ecb9)"/>
    </symbol>
  </defs>
</svg>
